<svg x="0" y="0" width="300" height="300" version="1.1" xmlns="http://www.w3.org/2000/svg" xmlns:xlink="http://www.w3.org/1999/xlink"><defs><linearGradient x1="152.68247" y1="122.414" x2="152.68247" y2="177.586" gradientUnits="userSpaceOnUse" id="color-1"><stop offset="0" stop-color="#09926a"></stop><stop offset="1" stop-color="#3e0992"></stop></linearGradient><linearGradient x1="126.69435" y1="133.4484" x2="126.69435" y2="166.5516" gradientUnits="userSpaceOnUse" id="color-2"><stop offset="0" stop-color="#09926a"></stop><stop offset="1" stop-color="#3e0992"></stop></linearGradient></defs><g data-paper-data="{&quot;description&quot;:&quot;Logo for Online Gobang\n======================\n\nThis logo was generated by MarkMaker and is composed of elements designed by others.\n\nThe font is Merriweather Bold designed by Eben Sorkin and released under the OFL license via Google Fonts: https://www.google.com/fonts/specimen/Merriweather. The font includes this copyright statement: Copyright (c) 2010-2016, Sorkin Type Co (www.sorkintype.com) with Reserved Font Name \\'Merriweather\\'\n\nMarkMaker uses semantic data from the Princeton University WordNet database http://wordnet.princeton.edu and font descriptions from Google Fonts https://www.google.com/fonts.\n\nThis design is inspired by designs that past users of MarkMaker have liked. As a result, it may be visually similar to past or future designs generated by the system. There is no guarantee that it is unique, original, or suitable in any way for use as a logo.\n\n&quot;}" fill="none" stroke="none" stroke-width="none" stroke-linecap="butt" stroke-linejoin="miter" stroke-miterlimit="10" stroke-dasharray="" stroke-dashoffset="0" font-family="sans-serif" font-weight="normal" font-size="12" text-anchor="start" mix-blend-mode="normal"><path d="M30,182.60703l0,-65.21405l115.42433,0l0,65.21405z" fill="none" stroke="#094692" stroke-width="2.1"></path><g data-paper-data="{&quot;elementType&quot;:&quot;logo&quot;}" fill="url(#color-1)" stroke-width="1"><g data-paper-data="{&quot;elementType&quot;:&quot;text&quot;}"><g data-paper-data="{&quot;baseline&quot;:82.275390625}"><g data-paper-data="{&quot;baselineProportion&quot;:0.9865339578454333,&quot;fontSize&quot;:100,&quot;baseline&quot;:82.275390625,&quot;elementType&quot;:&quot;word&quot;}"><path d="M153.09356,138.39976c0,-1.93475 0.35919,-3.62868 1.07758,-5.08178c0.71839,-1.4531 1.72862,-2.57354 3.0307,-3.36132c1.30208,-0.78778 2.81029,-1.18167 4.52462,-1.18167c2.81641,0.00816 4.90627,0.82247 6.26957,2.44293c1.36331,1.62046 2.04496,3.89603 2.04496,6.82673c0,1.95924 -0.36328,3.68582 -1.08983,5.17974c-0.72655,1.49392 -1.74903,2.6511 -3.06744,3.47153c-1.31841,0.82043 -2.84294,1.23065 -4.5736,1.23065c-1.86128,0 -3.40214,-0.39389 -4.62258,-1.18167c-1.22044,-0.78778 -2.12455,-1.89189 -2.71232,-3.31234c-0.58777,-1.42045 -0.88166,-3.09805 -0.88166,-5.0328 M157.6488,138.37527c0,2.62048 0.33879,4.58381 1.01636,5.88997c0.67757,1.30616 1.64086,1.95924 2.88988,1.95924c0.82451,0 1.52862,-0.30613 2.11231,-0.91839c0.58369,-0.61226 1.03268,-1.52862 1.34698,-2.74906c0.31429,-1.22044 0.47144,-2.72049 0.47144,-4.50013c0,-2.59599 -0.33674,-4.51034 -1.01023,-5.74303c-0.67349,-1.23269 -1.64291,-1.84903 -2.90825,-1.84903c-1.25718,0 -2.22455,0.65716 -2.90213,1.97149c-0.67757,1.31432 -1.01636,3.29397 -1.01636,5.93895z" data-paper-data="{&quot;elementType&quot;:&quot;letter&quot;,&quot;baseline&quot;:75.244140625,&quot;baselineProportion&quot;:0.9852941176470589,&quot;fontSize&quot;:100}"></path><path d="M177.59651,145.78365l0,-9.42885l-1.50617,-0.48981l0,-1.93475l4.42054,-0.56328l0.06123,0l0.67349,0.53879l0,0.8939l-0.02449,0.56328c0.57961,-0.53879 1.32045,-0.99799 2.22251,-1.37759c0.90207,-0.3796 1.8225,-0.5694 2.76131,-0.5694c1.01227,0 1.81026,0.18164 2.39395,0.54491c0.58369,0.36328 1.00411,0.94493 1.26126,1.74495c0.25715,0.80002 0.38573,1.88577 0.38573,3.25724l0,6.79612l1.46943,0.22041l0,1.66535l-6.80836,0l0,-1.64086l1.28575,-0.23266l0,-6.80836c0,-0.80819 -0.05306,-1.43882 -0.15919,-1.89189c-0.10613,-0.45307 -0.29797,-0.78574 -0.57553,-0.99799c-0.27756,-0.21225 -0.67757,-0.31838 -1.20004,-0.31838c-0.47348,0 -0.94493,0.1 -1.41433,0.30001c-0.4694,0.20001 -0.87145,0.43471 -1.20616,0.7041l0,9.01251l1.42045,0.23266l0,1.64086l-6.88183,0l0,-1.64086l1.42045,-0.22041z" data-paper-data="{&quot;elementType&quot;:&quot;letter&quot;,&quot;baseline&quot;:56.93359375,&quot;baselineProportion&quot;:1,&quot;fontSize&quot;:100}"></path><path d="M198.86672,145.75915l0,-16.2617l-1.80005,-0.31838l0,-1.50617l4.94708,-0.60002l0.06123,0l0.73472,0.53879l0,18.14747l1.65311,0.24491l0,1.64086l-7.23695,0l0,-1.64086l1.64086,-0.24491z" data-paper-data="{&quot;elementType&quot;:&quot;letter&quot;,&quot;baseline&quot;:82.03125,&quot;baselineProportion&quot;:1,&quot;fontSize&quot;:100}"></path><path d="M211.85913,145.75915l0,-9.40436l-1.65311,-0.50206l0,-1.87352l4.82463,-0.61226l0.06123,0l0.75921,0.53879l0,11.86565l1.56739,0.23266l0,1.64086l-7.20021,0l0,-1.64086l1.64086,-0.24491 M211.25911,129.42398c0,-0.44083 0.09184,-0.84492 0.27552,-1.21228c0.18368,-0.36736 0.45307,-0.6592 0.80819,-0.87554c0.35511,-0.21633 0.77757,-0.3245 1.26738,-0.3245l0.01225,0c0.46532,0 0.86329,0.09388 1.19391,0.28164c0.33062,0.18776 0.58369,0.43675 0.75921,0.74696c0.17552,0.31021 0.26327,0.65308 0.26327,1.0286c0,0.70206 -0.21225,1.27555 -0.63675,1.72046c-0.4245,0.44491 -1.03268,0.66737 -1.82454,0.66737l-0.01225,0c-0.40818,0 -0.77145,-0.0898 -1.08983,-0.2694c-0.31838,-0.1796 -0.56736,-0.42246 -0.74696,-0.72859c-0.1796,-0.30613 -0.2694,-0.65104 -0.2694,-1.03472z" data-paper-data="{&quot;elementType&quot;:&quot;letter&quot;,&quot;baseline&quot;:82.275390625,&quot;baselineProportion&quot;:1,&quot;fontSize&quot;:100}"></path><path d="M224.98624,145.78365l0,-9.42885l-1.50617,-0.48981l0,-1.93475l4.42054,-0.56328l0.06123,0l0.67349,0.53879l0,0.8939l-0.02449,0.56328c0.57961,-0.53879 1.32045,-0.99799 2.22251,-1.37759c0.90207,-0.3796 1.8225,-0.5694 2.76131,-0.5694c1.01227,0 1.81026,0.18164 2.39395,0.54491c0.58369,0.36328 1.00411,0.94493 1.26126,1.74495c0.25715,0.80002 0.38573,1.88577 0.38573,3.25724l0,6.79612l1.46943,0.22041l0,1.66535l-6.80836,0l0,-1.64086l1.28575,-0.23266l0,-6.80836c0,-0.80819 -0.05306,-1.43882 -0.15919,-1.89189c-0.10613,-0.45307 -0.29797,-0.78574 -0.57553,-0.99799c-0.27756,-0.21225 -0.67757,-0.31838 -1.20004,-0.31838c-0.47348,0 -0.94493,0.1 -1.41433,0.30001c-0.4694,0.20001 -0.87145,0.43471 -1.20616,0.7041l0,9.01251l1.42045,0.23266l0,1.64086l-6.88183,0l0,-1.64086l1.42045,-0.22041z" data-paper-data="{&quot;elementType&quot;:&quot;letter&quot;,&quot;baseline&quot;:56.93359375,&quot;baselineProportion&quot;:1,&quot;fontSize&quot;:100}"></path><path d="M244.67681,140.68962c0,-1.51025 0.28368,-2.81641 0.85105,-3.91848c0.56736,-1.10207 1.36535,-1.947 2.39395,-2.53477c1.0286,-0.58777 2.22047,-0.88166 3.57561,-0.88166c1.7225,0 3.04295,0.43675 3.96134,1.31024c0.91839,0.87349 1.398,2.12659 1.43882,3.75929c0,1.13473 -0.06123,1.99598 -0.18368,2.58375l-7.91044,0c0.09796,1.50208 0.46736,2.6164 1.1082,3.34295c0.64084,0.72655 1.49188,1.08983 2.55314,1.08983c0.61226,0 1.25106,-0.10613 1.91638,-0.31838c0.66533,-0.21225 1.20616,-0.45307 1.6225,-0.72247l0.71022,1.51841c-0.28572,0.30205 -0.70818,0.60818 -1.26738,0.91839c-0.5592,0.31021 -1.20004,0.5694 -1.92251,0.77757c-0.72247,0.20817 -1.44698,0.31225 -2.17353,0.31225c-1.51841,0 -2.77559,-0.30205 -3.77154,-0.90615c-0.99595,-0.6041 -1.72862,-1.44698 -2.19802,-2.52865c-0.4694,-1.08166 -0.7041,-2.34905 -0.7041,-3.80215 M252.99134,139.3304l0.01225,-1.0286c0,-1.02044 -0.14694,-1.8123 -0.44083,-2.37558c-0.29389,-0.56328 -0.79186,-0.84492 -1.49392,-0.84492c-0.46532,0 -0.86125,0.11837 -1.18779,0.35511c-0.32654,0.23674 -0.58777,0.66737 -0.7837,1.29187c-0.19592,0.62451 -0.30613,1.49188 -0.33062,2.60212l4.22461,0z" data-paper-data="{&quot;elementType&quot;:&quot;letter&quot;,&quot;baseline&quot;:56.982421875,&quot;baselineProportion&quot;:0.980672268907563,&quot;fontSize&quot;:100}"></path></g></g><g data-paper-data="{&quot;baseline&quot;:82.03125,&quot;elementType&quot;:&quot;row&quot;}"><g data-paper-data="{&quot;baselineProportion&quot;:0.7526881720430108,&quot;fontSize&quot;:100,&quot;baseline&quot;:82.03125,&quot;elementType&quot;:&quot;word&quot;}"><path d="M153.09356,157.10624c0,-2.04088 0.40205,-3.79195 1.20616,-5.25321c0.80411,-1.46127 1.93679,-2.57559 3.39806,-3.34295c1.46127,-0.76737 3.16744,-1.15105 5.11852,-1.15105c1.15105,0 2.28782,0.08572 3.4103,0.25715c1.12248,0.17143 2.07557,0.34695 2.85927,0.52655l-0.29389,4.7634l-2.86539,0l-0.74696,-3.19601c-0.15511,-0.17143 -0.42858,-0.3245 -0.82043,-0.4592c-0.39185,-0.1347 -0.94288,-0.20205 -1.65311,-0.20205c-1.01227,0 -1.87965,0.28776 -2.60212,0.86329c-0.72247,0.57553 -1.27555,1.42861 -1.65923,2.55926c-0.38368,1.13065 -0.57553,2.52048 -0.57553,4.16951c0,1.58372 0.15919,2.98376 0.47756,4.20012c0.31838,1.21636 0.82043,2.17353 1.50617,2.87151c0.68573,0.69798 1.55515,1.04697 2.60824,1.04697c0.58777,0 1.13269,-0.07347 1.63474,-0.22041c0.50206,-0.14694 0.87554,-0.35511 1.12044,-0.62451l0,-5.15525l-2.36333,-0.28164l0,-1.83679l7.69002,0l0,1.83679l-1.27351,0.23266l0,6.51448c-0.21225,0.00816 -0.46328,0.04694 -0.75308,0.11633c-0.2898,0.06939 -0.66328,0.16939 -1.12044,0.30001c-1.02044,0.27756 -1.92863,0.49185 -2.72457,0.64288c-0.79594,0.15102 -1.65923,0.22654 -2.58987,0.22654c-1.87761,0 -3.49398,-0.40818 -4.84912,-1.22453c-1.35514,-0.81635 -2.38374,-1.93475 -3.0858,-3.3552c-0.70206,-1.42045 -1.05309,-3.02866 -1.05309,-4.82463z" data-paper-data="{&quot;elementType&quot;:&quot;letter&quot;,&quot;baseline&quot;:75.244140625,&quot;baselineProportion&quot;:0.9852941176470589,&quot;fontSize&quot;:100}"></path><path d="M183.00892,151.92649c1.3878,0 2.58171,0.28776 3.58174,0.86329c1.00003,0.57553 1.76332,1.40412 2.28986,2.48579c0.52655,1.08166 0.78982,2.36538 0.78982,3.85113c0,1.62454 -0.31838,2.99192 -0.95513,4.10216c-0.63675,1.11024 -1.48576,1.93475 -2.54701,2.47354c-1.06126,0.53879 -2.23272,0.80819 -3.51439,0.80819c-1.3878,0 -2.58171,-0.28776 -3.58174,-0.86329c-1.00003,-0.57553 -1.76332,-1.40412 -2.28986,-2.48579c-0.52655,-1.08166 -0.78982,-2.36538 -0.78982,-3.85113c0,-1.58372 0.32042,-2.9307 0.96125,-4.04093c0.64084,-1.11024 1.49392,-1.94495 2.55926,-2.50415c1.06534,-0.5592 2.23068,-0.8388 3.49602,-0.8388 M185.34776,159.43283c0,-1.91842 -0.19796,-3.35724 -0.59389,-4.31645c-0.39593,-0.95921 -1.04289,-1.43882 -1.94087,-1.43882c-0.849,0 -1.48168,0.43267 -1.89801,1.298c-0.41634,0.86533 -0.62451,2.20823 -0.62451,4.02869c0,1.9021 0.20613,3.33683 0.61839,4.30421c0.41226,0.96738 1.06738,1.45106 1.96536,1.45106c0.84084,0 1.46331,-0.43062 1.8674,-1.29187c0.40409,-0.86125 0.60614,-2.20619 0.60614,-4.03481z" data-paper-data="{&quot;elementType&quot;:&quot;letter&quot;,&quot;baseline&quot;:57.03125,&quot;baselineProportion&quot;:0.980688497061293,&quot;fontSize&quot;:100}"></path><path d="M194.62986,147.71412l0,-1.45719l4.84912,-0.60002l0.06123,0l0.80819,0.50206l0,7.31042c0.4245,-0.44083 0.94901,-0.80819 1.57352,-1.10207c0.62451,-0.29389 1.30412,-0.44083 2.03884,-0.44083c1.0286,0 1.94904,0.23878 2.76131,0.71635c0.81227,0.47756 1.45719,1.23065 1.93475,2.25925c0.47756,1.0286 0.71635,2.33068 0.71635,3.90624c0,1.4531 -0.30205,2.76335 -0.90615,3.93073c-0.6041,1.16738 -1.47351,2.08782 -2.60824,2.76131c-1.13473,0.67349 -2.45721,1.01023 -3.96746,1.01023c-0.96329,0 -1.83475,-0.05714 -2.61436,-0.17143c-0.77961,-0.11429 -1.41229,-0.24899 -1.89801,-0.40409c-0.48573,-0.15511 -0.80206,-0.28572 -0.94901,-0.39185l0,-17.52296l-1.80005,-0.30613 M200.3484,164.35543c0.08164,0.1796 0.27552,0.3245 0.58165,0.43471c0.30613,0.11021 0.67145,0.16531 1.09595,0.16531c0.62043,0 1.1633,-0.21633 1.62862,-0.649c0.46532,-0.43267 0.8286,-1.08371 1.08983,-1.95312c0.26123,-0.86941 0.39185,-1.94087 0.39185,-3.21438c0,-1.6327 -0.24082,-2.84294 -0.72247,-3.63072c-0.48165,-0.78778 -1.14697,-1.18167 -1.99598,-1.18167c-0.43267,0 -0.83268,0.09388 -1.20004,0.28164c-0.36736,0.18776 -0.65716,0.40818 -0.86941,0.66124l0,9.08598z" data-paper-data="{&quot;elementType&quot;:&quot;letter&quot;,&quot;baseline&quot;:82.03125,&quot;baselineProportion&quot;:0.9864944216089254,&quot;fontSize&quot;:100}"></path><path d="M223.23498,157.13073c0,-0.61226 -0.06735,-1.09799 -0.20205,-1.45719c-0.1347,-0.35919 -0.38164,-0.62859 -0.74084,-0.80819c-0.35919,-0.1796 -0.87349,-0.2694 -1.5429,-0.2694c-0.83268,0 -1.58576,0.09184 -2.25925,0.27552c-0.67349,0.18368 -1.34902,0.42246 -2.02659,0.71635l-0.01225,0l-0.79594,-1.65311c0.2694,-0.22858 0.71635,-0.49593 1.34086,-0.80206c0.62451,-0.30613 1.35514,-0.57553 2.1919,-0.80819c0.83676,-0.23266 1.69189,-0.34899 2.56538,-0.34899c1.30616,0 2.33272,0.16939 3.07968,0.50818c0.74696,0.33879 1.27963,0.87554 1.59801,1.61025c0.31838,0.73472 0.47756,1.72658 0.47756,2.9756l0,7.50634l1.33473,0l0,1.55515c-0.41634,0.0898 -0.9388,0.1796 -1.56739,0.2694c-0.62859,0.0898 -1.17963,0.1347 -1.65311,0.1347c-0.43267,0 -0.76533,-0.03878 -0.99799,-0.11633c-0.23266,-0.07755 -0.39797,-0.21633 -0.49593,-0.41634c-0.09796,-0.20001 -0.14694,-0.49185 -0.14694,-0.87554l0,-0.3796c-0.40001,0.46532 -0.94288,0.87554 -1.62862,1.23065c-0.68573,0.35511 -1.47351,0.53267 -2.36333,0.53267c-0.7837,0 -1.50004,-0.16123 -2.14904,-0.48369c-0.649,-0.32246 -1.16534,-0.79798 -1.54902,-1.42657c-0.38368,-0.62859 -0.57553,-1.3878 -0.57553,-2.27762c0,-1.53474 0.71839,-2.69192 2.15517,-3.47153c1.43678,-0.77961 3.42459,-1.18167 5.96344,-1.20616l0,-0.5143 M223.23498,159.29814c-1.36331,0.00816 -2.34905,0.25307 -2.95723,0.73472c-0.60818,0.48165 -0.91227,1.09391 -0.91227,1.83679c0,0.75104 0.17347,1.32861 0.52042,1.7327c0.34695,0.40409 0.81431,0.60614 1.40208,0.60614c0.28572,0 0.61839,-0.07551 0.99799,-0.22654c0.3796,-0.15102 0.69594,-0.34083 0.94901,-0.5694l0,-4.11441z" data-paper-data="{&quot;elementType&quot;:&quot;letter&quot;,&quot;baseline&quot;:56.8359375,&quot;baselineProportion&quot;:0.9789739276703112,&quot;fontSize&quot;:100}"></path><path d="M235.50492,164.36767l0,-9.42885l-1.50617,-0.48981l0,-1.93475l4.42054,-0.56328l0.06123,0l0.67349,0.53879l0,0.8939l-0.02449,0.56328c0.57961,-0.53879 1.32045,-0.99799 2.22251,-1.37759c0.90207,-0.3796 1.8225,-0.5694 2.76131,-0.5694c1.01227,0 1.81026,0.18164 2.39395,0.54491c0.58369,0.36328 1.00411,0.94493 1.26126,1.74495c0.25715,0.80002 0.38573,1.88577 0.38573,3.25724l0,6.79612l1.46943,0.22041l0,1.66535l-6.80836,0l0,-1.64086l1.28575,-0.23266l0,-6.80836c0,-0.80819 -0.05306,-1.43882 -0.15919,-1.89189c-0.10613,-0.45307 -0.29797,-0.78574 -0.57553,-0.99799c-0.27756,-0.21225 -0.67757,-0.31838 -1.20004,-0.31838c-0.47348,0 -0.94493,0.1 -1.41433,0.30001c-0.4694,0.20001 -0.87145,0.43471 -1.20616,0.7041l0,9.01251l1.42045,0.23266l0,1.64086l-6.88183,0l0,-1.64086l1.42045,-0.22041z" data-paper-data="{&quot;elementType&quot;:&quot;letter&quot;,&quot;baseline&quot;:56.93359375,&quot;baselineProportion&quot;:1,&quot;fontSize&quot;:100}"></path><path d="M261.56302,161.35534c-0.79186,0 -1.46127,-0.05714 -2.00822,-0.17143c-0.09796,0.18776 -0.17552,0.39593 -0.23266,0.62451c-0.05714,0.22858 -0.08572,0.42042 -0.08572,0.57553c0,0.35919 0.0898,0.63063 0.2694,0.81431c0.1796,0.18368 0.4592,0.31021 0.8388,0.3796c0.3796,0.06939 0.91227,0.10408 1.59801,0.10408l2.49803,0c1.74699,0 3.05315,0.31429 3.91848,0.94288c0.86533,0.62859 1.298,1.60413 1.298,2.92662c0,1.06942 -0.3694,2.01639 -1.1082,2.8409c-0.7388,0.82451 -1.71025,1.46331 -2.91437,1.91638c-1.20412,0.45307 -2.47558,0.67961 -3.8144,0.67961l-0.01225,0c-2.28578,0 -3.95522,-0.35307 -5.00831,-1.05921c-1.05309,-0.70614 -1.57964,-1.65107 -1.57964,-2.83478c0,-0.70206 0.22041,-1.36331 0.66124,-1.98373c0.44083,-0.62043 0.99187,-1.0735 1.65311,-1.35922c-0.7837,-0.45716 -1.17554,-1.14697 -1.17554,-2.06945c0,-0.56328 0.1796,-1.10207 0.53879,-1.61637c0.35919,-0.5143 0.84492,-0.92248 1.45719,-1.22453c-0.92248,-0.36736 -1.60413,-0.91023 -2.04496,-1.62862c-0.44083,-0.71839 -0.66124,-1.57556 -0.66124,-2.5715c0,-0.95513 0.28164,-1.78985 0.84492,-2.50415c0.56328,-0.71431 1.32249,-1.26126 2.27762,-1.64086c0.95513,-0.3796 2.00414,-0.5694 3.14703,-0.5694l0.01225,0c2.09802,0 3.62868,0.40818 4.59197,1.22453c0.24491,-0.31021 0.6143,-0.59798 1.1082,-0.86329c0.49389,-0.26531 1.03064,-0.39797 1.61025,-0.39797l0.75921,0l0,3.02458l-2.38782,0c0.12245,0.44083 0.18368,0.91839 0.18368,1.43269c0.00816,0.99595 -0.2347,1.87148 -0.72859,2.62661c-0.49389,0.75512 -1.21024,1.34086 -2.14904,1.75719c-0.9388,0.41634 -2.05312,0.62451 -3.34295,0.62451l-0.01225,0 M259.45683,166.31467c-0.23674,0.50614 -0.35511,1.12248 -0.35511,1.84903c0,1.95924 1.04493,2.93886 3.13479,2.93886l0.02449,0c0.54695,0 1.07146,-0.10204 1.57352,-0.30613c0.50206,-0.20409 0.91023,-0.51022 1.22453,-0.91839c0.31429,-0.40818 0.47144,-0.90615 0.47144,-1.49392c0,-0.49797 -0.07551,-0.88982 -0.22654,-1.17554c-0.15102,-0.28572 -0.40613,-0.49185 -0.76533,-0.61839c-0.35919,-0.12653 -0.85717,-0.1898 -1.49392,-0.1898l-2.25313,0c-0.41634,0 -0.86125,-0.02857 -1.33473,-0.08572z M261.78343,153.55511c-0.71839,0 -1.2531,0.24286 -1.60413,0.72859c-0.35103,0.48573 -0.52655,1.2184 -0.52655,2.19802c0,1.02044 0.17143,1.80618 0.5143,2.35721c0.34287,0.55104 0.90207,0.82655 1.6776,0.82655l0.01225,0c0.71839,0 1.23269,-0.26327 1.5429,-0.78982c0.31021,-0.52655 0.46532,-1.27963 0.46532,-2.25925c0,-1.06126 -0.16327,-1.83679 -0.48981,-2.3266c-0.32654,-0.48981 -0.85309,-0.73472 -1.57964,-0.73472l-0.01225,0" data-paper-data="{&quot;elementType&quot;:&quot;letter&quot;,&quot;baseline&quot;:57.177734375,&quot;baselineProportion&quot;:0.6796285548461984,&quot;fontSize&quot;:100}"></path></g></g></g></g><g data-paper-data="{&quot;elementType&quot;:&quot;emblem&quot;}" fill="url(#color-2)" stroke-width="1"><g data-paper-data="{&quot;baselineProportion&quot;:0.9852941176470589,&quot;fontSize&quot;:100,&quot;baseline&quot;:75.244140625,&quot;elementType&quot;:&quot;word&quot;}"><path d="M53.08487,150.08466c0,-3.34419 0.62086,-6.27211 1.86258,-8.78378c1.24172,-2.51167 2.9879,-4.44833 5.23852,-5.80999c2.25062,-1.36166 4.85753,-2.04249 7.82074,-2.04249c4.86812,0.01411 8.4804,1.42163 10.83685,4.22256c2.35645,2.80093 3.53468,6.73423 3.53468,11.79989c0,3.38652 -0.62792,6.37088 -1.88375,8.9531c-1.25583,2.58222 -3.02317,4.58238 -5.30201,6.00048c-2.27884,1.4181 -4.91398,2.12716 -7.9054,2.12716c-3.21719,0 -5.88054,-0.68083 -7.99006,-2.04249c-2.10952,-1.36166 -3.67225,-3.2701 -4.68821,-5.72533c-1.01595,-2.45522 -1.52393,-5.35493 -1.52393,-8.69911 M60.95852,150.04233c0,4.52947 0.58559,7.92304 1.75676,10.18072c1.17117,2.25768 2.83621,3.38652 4.99511,3.38652c1.42516,0 2.64219,-0.52914 3.65109,-1.58743c1.0089,-1.05829 1.78498,-2.64219 2.32823,-4.75171c0.54325,-2.10952 0.81488,-4.70232 0.81488,-7.77841c0,-4.48713 -0.58206,-7.79604 -1.74617,-9.92673c-1.16412,-2.13068 -2.83974,-3.19602 -5.02686,-3.19602c-2.17301,0 -3.84511,1.13589 -5.01628,3.40768c-1.17117,2.27179 -1.75676,5.69358 -1.75676,10.26538z" data-paper-data="{&quot;elementType&quot;:&quot;letter&quot;,&quot;baseline&quot;:75.244140625,&quot;baselineProportion&quot;:0.9852941176470589,&quot;fontSize&quot;:100}"></path><path d="M92.17831,150.29632c0,-3.52762 0.69494,-6.55432 2.08482,-9.0801c1.38988,-2.52578 3.34771,-4.45186 5.87349,-5.77824c2.52578,-1.32639 5.47487,-1.98958 8.84727,-1.98958c1.98958,0 3.95446,0.14816 5.89466,0.44448c1.94019,0.29632 3.58759,0.5997 4.9422,0.91013l-0.50798,8.23347l-4.95278,0l-1.29111,-5.52426c-0.2681,-0.29632 -0.7408,-0.56089 -1.4181,-0.79371c-0.6773,-0.23282 -1.62976,-0.34923 -2.85737,-0.34923c-1.7497,0 -3.24894,0.49739 -4.49772,1.49218c-1.24878,0.99479 -2.20476,2.46933 -2.86796,4.42364c-0.66319,1.9543 -0.99479,4.35661 -0.99479,7.20693c0,2.73743 0.27515,5.15738 0.82546,7.25984c0.55031,2.10246 1.4181,3.75692 2.60338,4.96336c1.18528,1.20645 2.68805,1.80967 4.5083,1.80967c1.01595,0 1.95783,-0.12699 2.82562,-0.38098c0.86779,-0.25399 1.51335,-0.61381 1.93666,-1.07945l0,-8.91077l-4.08499,-0.48681l0,-3.17486l13.29208,0l0,3.17486l-2.20124,0.40215l0,11.26017c-0.36687,0.01411 -0.80077,0.08114 -1.30169,0.20107c-0.50092,0.11994 -1.14648,0.29279 -1.93666,0.51856c-1.76381,0.47976 -3.3336,0.85016 -4.70937,1.1112c-1.37577,0.26104 -2.86796,0.39157 -4.47655,0.39157c-3.24541,0 -6.03929,-0.70552 -8.38163,-2.11657c-2.34234,-1.41105 -4.12026,-3.34419 -5.33376,-5.79941c-1.2135,-2.45522 -1.82025,-5.23499 -1.82025,-8.3393z" data-paper-data="{&quot;elementType&quot;:&quot;letter&quot;,&quot;baseline&quot;:75.244140625,&quot;baselineProportion&quot;:0.9852941176470589,&quot;fontSize&quot;:100}"></path></g></g></g></svg>